<?xml version="1.0" standalone="no"?>
<!DOCTYPE svg PUBLIC "-//W3C//DTD SVG 20010904//EN"
 "http://www.w3.org/TR/2001/REC-SVG-20010904/DTD/svg10.dtd">
<svg version="1.0" xmlns="http://www.w3.org/2000/svg"
 width="512.000000pt" height="512.000000pt" viewBox="0 0 512.000000 512.000000"
 preserveAspectRatio="xMidYMid meet">
<metadata>
Created by potrace 1.11, written by Peter Selinger 2001-2013
</metadata>
<g transform="translate(0.000000,512.000000) scale(0.100000,-0.100000)"
fill="#000000" stroke="none">
<path d="M2369 3695 c0 -5 -2 -17 -4 -25 -2 -8 -5 -27 -8 -43 -3 -15 -8 -35
-11 -45 -3 -9 -7 -33 -10 -52 -3 -19 -8 -46 -11 -60 -3 -14 -8 -36 -10 -50 -2
-14 -7 -36 -10 -50 -9 -38 -26 -122 -30 -150 -2 -14 -11 -61 -21 -105 -9 -44
-17 -89 -18 -100 -2 -18 -11 -19 -172 -19 l-170 1 0 -111 0 -112 141 0 140 0
-1 -29 c0 -28 -3 -48 -20 -130 -3 -16 -7 -41 -9 -55 -2 -14 -5 -25 -6 -25 -1
0 -3 -9 -5 -20 -6 -42 -14 -81 -23 -117 -5 -20 -7 -38 -6 -40 2 -2 -65 -3
-148 -3 l-152 0 -3 -110 -3 -111 131 1 130 0 -5 -30 c-2 -16 -7 -41 -10 -55
-3 -14 -7 -36 -10 -50 -3 -14 -7 -36 -10 -50 -3 -14 -7 -36 -10 -50 -3 -14 -7
-36 -10 -50 -3 -14 -7 -36 -10 -50 -3 -14 -7 -36 -10 -50 -3 -14 -8 -36 -10
-50 -8 -46 -15 -85 -21 -110 -3 -14 -8 -36 -11 -50 -2 -14 -8 -43 -13 -65 -16
-68 -21 -65 108 -65 88 0 119 3 119 13 0 6 3 23 6 37 10 46 30 145 33 165 1
11 3 20 4 20 2 0 7 24 15 75 4 24 8 47 10 50 2 3 6 21 9 40 3 19 8 46 11 60 3
14 8 40 10 59 3 18 7 37 10 41 2 4 7 25 9 46 3 21 10 54 15 73 6 19 9 37 7 40
-2 3 79 6 181 6 l184 0 -5 -30 c-4 -16 -8 -41 -11 -55 -3 -14 -7 -36 -10 -50
-3 -14 -7 -36 -10 -50 -3 -14 -7 -36 -10 -50 -3 -14 -7 -36 -10 -50 -3 -14
-10 -47 -15 -75 -6 -27 -12 -61 -15 -75 -3 -14 -7 -36 -10 -50 -3 -14 -7 -36
-10 -50 -3 -14 -7 -36 -10 -50 -3 -14 -7 -36 -10 -50 -3 -14 -8 -40 -11 -57
l-5 -33 121 0 c93 0 121 3 117 13 -2 6 -1 22 4 33 4 12 11 41 14 65 4 24 8 46
11 50 2 3 6 21 8 40 3 19 8 45 11 59 4 14 8 36 10 50 2 14 6 36 9 50 4 14 8
36 11 50 3 14 7 36 10 50 3 14 10 48 15 75 6 28 12 61 15 75 3 14 8 41 11 60
4 19 10 40 15 45 5 6 70 10 168 10 l161 -1 0 111 0 111 -122 1 c-185 1 -171
-1 -164 31 6 27 12 56 21 102 8 43 14 74 20 100 5 26 11 52 21 105 3 17 7 37
9 45 2 8 4 20 4 25 1 6 58 10 154 10 l153 -1 0 110 -1 111 -120 2 c-66 1 -124
2 -128 2 -8 1 -6 19 8 86 4 17 9 40 11 53 2 12 6 32 8 45 4 22 10 50 21 97 3
14 7 39 10 55 5 34 12 68 19 93 3 9 7 33 10 52 8 50 16 93 21 110 2 8 7 29 10
45 2 17 7 39 9 51 4 19 0 20 -115 20 -74 0 -119 -4 -120 -11 -4 -26 -8 -52
-13 -75 -7 -31 -17 -78 -22 -105 -1 -11 -5 -31 -9 -45 -3 -14 -7 -36 -10 -50
-8 -43 -14 -74 -20 -100 -12 -58 -16 -76 -20 -102 -2 -15 -6 -35 -9 -45 -3
-10 -8 -34 -11 -53 -8 -49 -16 -92 -21 -110 -3 -13 -30 -15 -171 -13 -93 1
-174 2 -181 2 -12 1 -12 11 3 81 3 14 7 39 10 55 3 17 8 44 12 60 3 17 7 39 9
50 1 11 3 20 4 20 2 0 4 9 5 20 4 28 13 72 19 93 3 9 7 33 10 52 3 19 8 46 11
60 3 14 7 35 9 48 3 13 7 31 10 40 3 9 7 35 11 57 3 22 8 47 10 56 5 14 -10
15 -115 15 -73 -1 -120 -5 -121 -11z m403 -924 c10 -1 15 -7 13 -13 -2 -7 -7
-24 -9 -38 -3 -14 -8 -36 -11 -50 -3 -14 -7 -36 -10 -50 -3 -14 -7 -35 -9 -46
-2 -12 -7 -37 -10 -55 -3 -19 -8 -45 -12 -59 -3 -14 -7 -35 -9 -47 -9 -61 1
-58 -195 -58 l-180 0 5 25 c2 14 7 37 9 53 3 15 7 35 10 45 3 9 8 33 10 52 3
19 8 46 11 60 3 14 7 36 10 50 3 14 7 36 10 50 3 14 7 39 11 55 l5 30 167 -2
c92 0 175 -2 184 -2z"/>
</g>
</svg>
